<svg xmlns="http://www.w3.org/2000/svg" style="display: none;">
    <symbol id="arrow-01" viewBox="0 0 13.98 23.98">
      <path d="M13.71 11.28a1 1 0 0 0-.32-.21L1.63.28A1 1 0 0 0 .28 1.63L11.58 12 .28 22.36a1 1 0 1 0 1.35 1.35l11.76-10.79a1 1 0 0 0 .32-.21 1.07 1.07 0 0 0 0-1.43" fill="currentColor" fill-rule="evenodd"/>
    </symbol>
    <symbol id="close" viewBox="0 0 14.99 14.99">
      <path fill="inherit" d="M14.99 14.15L8.32 7.48 14.81.99l-.82-.81L7.5 6.67.83 0 0 .83 6.67 7.5.18 13.99l.81.82 6.49-6.49 6.67 6.67.84-.84"/>
    </symbol>
    <symbol id="ico-01" viewBox="0 0 32 32">
      <path d="M16 0A16 16 0 0 0 0 16v2h14v8a6 6 0 0 0 12 0h-2a4 4 0 0 1-8 0v-8h16v-2A16 16 0 0 0 16 0M2 16a14 14 0 0 1 28 0H2z" fill="#00aeef" fill-rule="evenodd"/>
    </symbol>
    <symbol id="ico-02" viewBox="0 0 23.99 32.01">
      <path d="M6.86 15.44l-4.31-12 4-1 4.19 11.68A10 10 0 0 1 12 14h.91L8 0 0 2l5.1 14.78a10 10 0 0 1 1.75-1.33m10.57-13l4 1-4.31 12a10 10 0 0 1 1.75 1.33L24 2l-8-2-2.72 7.73 1 3.42zM12 16a8 8 0 1 0 8 8 8 8 0 0 0-8-8m0 14a6 6 0 1 1 6-6 6 6 0 0 1-6 6" fill="#00aeef" fill-rule="evenodd"/>
    </symbol>
    <symbol id="ico-03" viewBox="0 0 32 28">
      <path d="M30.62 18.41c-.62-.54-4.62-1.59-6.71-2.11A11.39 11.39 0 0 0 27 8.35C27 3.74 25.73 0 20 0a7.6 7.6 0 0 0-4.2 1 7.06 7.06 0 0 1 3.4 1 7.9 7.9 0 0 1 .8 0c4.16 0 5 2.87 5 6.42 0 2.58-1 5.41-2.76 6.76v1.32l.28.91c2.08.54 5.59 1.47 6.44 1.85 1.19.53 1.57 3.2 0 3.75h-3.07a5.21 5.21 0 0 1 0 1.92c5-.16 5.37-.52 5.37-.52a5 5 0 0 0-.66-6m-14.78.88A12.33 12.33 0 0 0 19 10.82C19 5.95 17.73 2 12 2s-7 3.95-7 8.82a12.32 12.32 0 0 0 3.18 8.48c-2.09.51-6.16 1.55-6.78 2.11a5 5 0 0 0-.67 6S1.48 28 12 28s11.23-.6 11.23-.6a5 5 0 0 0-.66-6c-.6-.54-4.74-1.62-6.78-2.12M21 26H3c-1.79-.63-.88-3.22.31-3.75.91-.4 4.41-1.44 6.18-2l.24-.8v-1.32C8 16.67 7 13.65 7 10.89 7 7.09 7.83 4 12 4s5 3.08 5 6.87c0 2.76-1 5.79-2.76 7.25v1.36l.28.91c2.08.54 5.59 1.47 6.44 1.85 1.19.53 1.57 3.2 0 3.75" fill="#00aeef" fill-rule="evenodd"/>
    </symbol>
    <symbol id="ico-04" viewBox="0 0 32 31.01">
      <path d="M23 0c-3 0-7 5-7 5s-4-5-7-5C2.92 0 0 3 0 9.08 0 14.82 16 31 16 31S32 14.82 32 9.08C32 3 29.08 0 23 0m-7 28S2 14.2 2 9.34C2 4.18 3.68 2 9 2c1.58 0 7 5 7 5s5.42-5 7-5c5.31 0 7 2.18 7 7.34C30 14.2 16 28 16 28" fill="#00aeef" fill-rule="evenodd"/>
    </symbol>
    <symbol id="ico-bookmark" viewBox="0 0 32 32">
      <path d="M32 12l-11-1-5-11-5 11-11 1 8.3 8.37L6 32l10-6.07L26 32l-2.31-11.63z" fill="inherit" stroke="currentColor" stroke-width="2"/>
    </symbol>
    <symbol id="ico-check" viewBox="0 0 23.01 16.01">
      <path d="M1.7 8.29A1 1 0 0 0 .29 9.7l6 6a1 1 0 0 0 1.18.15 1 1 0 0 0 1.19-.14l14-14a1 1 0 0 0-1.4-1.4L7.5 14.11z" fill="#00aeef" fill-rule="evenodd"/>
    </symbol>
    <symbol id="ico-fb" viewBox="0 0 28 28">
      <path d="M25.6 0H2.4A2.43 2.43 0 0 0 0 2.4v23.1A2.46 2.46 0 0 0 2.4 28h12V18a.47.47 0 0 0-.5-.5h-2.5v-2H14a.47.47 0 0 0 .5-.5v-2.6a4.73 4.73 0 0 1 5-4.9c1 0 1.6.1 2 .1v1.8h-1.6c-1.5 0-2.4 1.3-2.4 3.5v2a.47.47 0 0 0 .5.5h3l-.4 2H18a.47.47 0 0 0-.5.5v10h8.1a2.43 2.43 0 0 0 2.4-2.4V2.4A2.43 2.43 0 0 0 25.6 0zm.4 25.6a.43.43 0 0 1-.4.4h-7.1v-7.5H21a.66.66 0 0 0 .5-.4l.6-3a.6.6 0 0 0-.1-.4.52.52 0 0 0-.4-.2h-3.1V13c0-.9.2-2.5 1.4-2.5H22c.1 0 .3-.1.4-.1a.48.48 0 0 0 .1-.4V7.2a.46.46 0 0 0-.4-.5h-.2a10.28 10.28 0 0 0-2.4-.2 5.75 5.75 0 0 0-6 5.9v2.1H11a.47.47 0 0 0-.5.5v3a.47.47 0 0 0 .5.5h2.5V26H2.4a.43.43 0 0 1-.4-.4V2.4a.43.43 0 0 1 .4-.4h23.1a.46.46 0 0 1 .5.4v23.2z" fill="#00aeef"/>
    </symbol>
    <symbol id="ico-mail" viewBox="0 0 32 26">
      <path d="M32 1a1 1 0 0 0-.29-.72 1 1 0 0 0-.76-.28H1.05a1 1 0 0 0-.76.28A1 1 0 0 0 0 1v24a1 1 0 0 0 1 1h30a1 1 0 0 0 1-1V1m-3.83 1L16 11.74 3.83 2h24.34zM29 24H3a1 1 0 0 1-1-1V3l13.23 10.6v.07a1 1 0 0 0 1.43 0v-.07L30 3v20a1 1 0 0 1-1 1" fill="#00aeef" fill-rule="evenodd"/>
    </symbol>
    <symbol id="ico-map" viewBox="0 0 32 32">
      <path d="M3 30l3-10H4L0 32h12l-2-2H3zM16 6a5 5 0 1 0 5 5 5 5 0 0 0-5-5m0 8a3 3 0 1 1 3-3 3 3 0 0 1-3 3m12 6h-2l3 10h-7l-2 2h12zM16 0A12 12 0 0 0 4 12c0 6.63 12 20 12 20s12-13.37 12-20A12 12 0 0 0 16 0M6 12.13a10 10 0 1 1 20 0C26 17.72 16 29 16 29S6 17.72 6 12.13" fill="currentColor" fill-rule="evenodd"/>
    </symbol>
    <symbol id="ico-phone" viewBox="0 0 31.98 31.97">
      <path d="M27.29.53a2.3 2.3 0 0 0-3.22.24c-.34.49-3.91 5.83-4.31 6.48a1.92 1.92 0 0 0-.26 1 3.41 3.41 0 0 0 .42 1.56c.27.51 1.16 2.07 1.6 2.83a38 38 0 0 1-4.18 4.73 38 38 0 0 1-4.75 4.16c-.76-.43-2.33-1.32-2.84-1.59a2.62 2.62 0 0 0-2.59-.15c-.62.39-5.93 3.93-6.44 4.29A2 2 0 0 0 0 25.72a2.77 2.77 0 0 0 .5 1.58S3.88 32 5.82 32c5.45-.17 11.86-5.46 16.27-9.86S31.81 11.33 32 5.87C32 3.96 27.35.6 27.31.57m-6.63 20.14C14.85 26.52 9.59 29.8 5.86 30c-.71-.25-2.52-2.08-3.78-3.82a.79.79 0 0 1-.14-.43.45.45 0 0 1 0-.08c.82-.56 5.39-3.57 6.24-4.12a1.49 1.49 0 0 1 .64.2c.35.18 1.36.75 2.78 1.55l1.1.63 1-.73a40 40 0 0 0 5-4.38 39.82 39.82 0 0 0 4.4-5l.73-1-.63-1.1c-.61-1.06-1.34-2.35-1.56-2.77a1.41 1.41 0 0 1-.19-.63c.55-.84 3.64-5.5 4.2-6.32a.68.68 0 0 1 .47.15c1.76 1.26 3.6 3.06 3.88 3.76-.18 3.74-3.47 9-9.3 14.8" fill="#00aeef"/>
    </symbol>
    <symbol id="ico-plus" viewBox="0 0 32 32">
      <path d="M22.52 15H17V9.48a1 1 0 0 0-2 0V15H9.48a1 1 0 0 0 0 2H15v5.54a1 1 0 0 0 2 0V17h5.54a1 1 0 1 0 0-2M16 0a16 16 0 1 0 16 16A16 16 0 0 0 16 0m0 30a14 14 0 1 1 14-14 14 14 0 0 1-14 14" fill="#fff" fill-rule="evenodd"/>
    </symbol>
    <symbol id="ico-rss" viewBox="0 0 24 24">
      <path d="M0 16v2a6 6 0 0 1 6 6h2a8 8 0 0 0-8-8m1-8c-.34 0-.67 0-1 .05v2h.5A13.5 13.5 0 0 1 14 23.5v.5h2c0-.33.05-.66.05-1A15 15 0 0 0 1 8m.5-8C1 0 .5 0 0 .08v2C.33 2 .66 2 1 2a21 21 0 0 1 21 21c0 .34 0 .67-.05 1h2c0-.5.08-1 .08-1.5A22.5 22.5 0 0 0 1.5 0" fill="#00aeef"/>
    </symbol>
    <symbol id="logo-main" viewBox="0 0 232.06 87.73">
      <path d="M45.79 56.81a14.7 14.7 0 0 1-14.67 14.65H16.47A14.7 14.7 0 0 1 1.81 56.81V42.14a14.7 14.7 0 0 1 14.66-14.65h14.65a14.7 14.7 0 0 1 14.67 14.65v14.67z" fill="#ec008c"/><rect x="49.45" y="27.49" width="21.99" height="21.99" rx="7.33" ry="7.33" fill="#00aeef"/><path d="M45.8 16.5a7.35 7.35 0 0 1-7.33 7.33h-7.33a7.35 7.35 0 0 1-7.33-7.33V9.17a7.35 7.35 0 0 1 7.33-7.33h7.33a7.35 7.35 0 0 1 7.33 7.33v7.33z" fill="#fff200"/><path d="M30.9 26.12H16a16 16 0 0 0-16 16V57a16 16 0 0 0 16 16h14.9a16 16 0 0 0 16-16V42.1a16 16 0 0 0-16-15.98zm10.84 6.29a14.73 14.73 0 0 0-5.13-3.69 14.59 14.59 0 0 1 4.59 3.09c.19.19.36.4.55.6zm.79 1q-.34-.46-.72-.89.38.39.73.85zM30.9 26.82a15.23 15.23 0 0 1 3.81.48 15.23 15.23 0 0 0-3.81-.48zm5.66 1.88c-.37-.16-.75-.3-1.14-.42.39.12.77.26 1.14.42zm-1.24-.46c-.37-.12-.75-.22-1.14-.31.39.07.77.19 1.14.3zM34 27.89c-.43-.1-.86-.17-1.3-.23.49.06.92.13 1.3.23zM5.69 31.81a14.56 14.56 0 0 1 8.57-4.17A14.65 14.65 0 0 0 1.58 40a14.56 14.56 0 0 1 4.11-8.19zM1.41 42.1zm.34 18c-.09-.43-.17-.87-.22-1.31.05.44.13.88.22 1.31zm1.37 3.72a14.71 14.71 0 0 0 3.13 4c-.18-.17-.38-.33-.55-.51a14.64 14.64 0 0 1-2.58-3.49zm-1.34-3.6c.09.39.22.78.31 1.15-.09-.37-.22-.76-.31-1.15zm.35 1.26c.13.39.26.77.42 1.14-.16-.38-.3-.76-.42-1.14zm.44 1.19c.17.39.34.77.54 1.14-.19-.37-.37-.75-.54-1.14zm3.77 5.24c.28.25.58.49.88.72-.3-.23-.59-.47-.88-.72zm1 .84c.33.25.66.42.94.61-.28-.19-.6-.36-.89-.61zm1.16.75c.3.18.6.35.91.51-.31-.16-.61-.33-.91-.51zm1.2.64c.3.15.61.29.92.41-.32-.12-.62-.26-.92-.41zm1.3.54c.3.11.61.22.92.31-.35-.09-.66-.2-.92-.31zm1.34.42c.3.08.59.16.9.21-.35-.05-.65-.13-.95-.21zm1.44.3c.27 0 .54.09.82.12-.32-.03-.6-.08-.86-.12zm17.16-.51H16A13.94 13.94 0 0 1 2.11 57V42.1A13.94 13.94 0 0 1 16 28.23h14.9A13.94 13.94 0 0 1 44.77 42.1V57A13.93 13.93 0 0 1 30.9 70.89zm11.72-37.36c.21.29.41.58.6.89-.19-.3-.39-.6-.6-.89zm.75 1.13c.17.29.34.59.5.9-.16-.31-.33-.56-.51-.9zm.59 1.19c.14.3.28.59.4.9-.08-.3-.21-.6-.4-.9zm.53 1.26c.11.3.21.6.31.9-.05-.3-.15-.6-.26-.89zM45.48 57A14.62 14.62 0 0 1 30.9 71.6 14.64 14.64 0 0 0 45.48 57V42.1v-.29V57zM45 38.45c.08.29.15.59.21.89-.06-.34-.14-.6-.21-.89zm.3 1.42c0 .28.09.56.12.84-.04-.29-.09-.57-.13-.85zm19.19-13.75H57a8.54 8.54 0 0 0-8.52 8.52v7.46A8.54 8.54 0 0 0 57 50.62h7.46A8.54 8.54 0 0 0 73 42.1v-7.46a8.54 8.54 0 0 0-8.51-8.52zm6.26 5.21a6.93 6.93 0 0 0-.39-.66 7.15 7.15 0 0 1 .39.65zm.44 1a7.28 7.28 0 0 0-.36-.84 7.8 7.8 0 0 1 .37.82zm-.92-1.76a6.55 6.55 0 0 0-.52-.65 6.6 6.6 0 0 1 .53.63zm-.56-.7a7.18 7.18 0 0 0-2.25-1.65 7.09 7.09 0 0 1 2 1.42zm-5.23-3a7.7 7.7 0 0 1 2.16.31 7.75 7.75 0 0 0-2.16-.31zm3 1.37a7.08 7.08 0 0 0-.86-.33 7.08 7.08 0 0 1 .83.28zm-.94-.35a6.87 6.87 0 0 0-.9-.21 6.75 6.75 0 0 1 .87.16zm-11-.15a7.08 7.08 0 0 0-1.89.7 7.08 7.08 0 0 1 1.88-.75zm-5.61 6.95zm1 11a7.3 7.3 0 0 0 .42.64c-.19-.25-.35-.46-.46-.68zm-.48-1a6.68 6.68 0 0 0 .38.81 6.68 6.68 0 0 1-.42-.83zm1 1.73a7.18 7.18 0 0 0 1.3 1.32 7.24 7.24 0 0 1-.75-.62 7.62 7.62 0 0 1-.62-.73zm4 2.61a7 7 0 0 0 .91.16 7.24 7.24 0 0 1-.98-.19zm-2.67-1.27a7.11 7.11 0 0 0 1.63.94 7.11 7.11 0 0 1-1.7-.97zm1.67 1a7.37 7.37 0 0 0 .87.28 7.37 7.37 0 0 1-.93-.35zm10.1-.19H57a6.44 6.44 0 0 1-6.41-6.41v-7.52A6.44 6.44 0 0 1 57 28.23h7.46a6.44 6.44 0 0 1 6.41 6.41v7.46a6.45 6.45 0 0 1-6.38 6.4zM71 44.83V45zm-3.34 3.6a7.16 7.16 0 0 0 2-1.5l-.17.19a7.12 7.12 0 0 1-1.79 1.31zm-2 .67L66 49zm.6-.1l.35-.1zm.52-.16l.38-.14zm.49-.19l.42-.2zm3.21-2.75l.16-.26zm-.58.79l.32-.41zM57 59.7h-3.69a4.79 4.79 0 0 0-4.79 4.78v3.73A4.8 4.8 0 0 0 53.31 73H57a4.8 4.8 0 0 0 4.79-4.79v-3.73A4.79 4.79 0 0 0 57 59.7zm3.34 4.37a3.41 3.41 0 0 0-.54-1.47 3.37 3.37 0 0 1 .58 1.47zm-10.62-1.53a4.1 4.1 0 0 1 2-1.81 4.12 4.12 0 0 0-2 1.81zm.21 1.94zm.87 6a2.8 2.8 0 0 1-.31-.48 3 3 0 0 0 .31.46zm-.34-.48a3.36 3.36 0 0 1-.23-.42 3.36 3.36 0 0 0 .23.42zm-.26-.49A4 4 0 0 1 50 69a4 4 0 0 0 .2.51zm.6 1a3.29 3.29 0 0 0 .31.29c-.06-.05-.13-.1-.19-.15zm.48.43l.29.2zm.53.33l.28.13zm.61.23l.25.07zm4.58-.61h-3.69a2.69 2.69 0 0 1-2.67-2.68v-3.73a2.69 2.69 0 0 1 2.67-2.67H57a2.69 2.69 0 0 1 2.68 2.67v3.73A2.7 2.7 0 0 1 57 70.89zm0 .7zm2.23-.86a3.35 3.35 0 0 1-.42.33 3.53 3.53 0 0 0 .46-.33zm-.56.4a3.1 3.1 0 0 1-.42.21 3.1 3.1 0 0 0 .46-.21zm-.65.29a3.76 3.76 0 0 1-.37.11 3.27 3.27 0 0 0 .41-.11zm1.36-.82l-.1.08a3.38 3.38 0 0 0 1.07-2.17 3.35 3.35 0 0 1-.93 2.09zM38.38 0h-7.46a8.54 8.54 0 0 0-8.52 8.52V16a8.54 8.54 0 0 0 8.52 8.52h7.46A8.53 8.53 0 0 0 46.9 16V8.52A8.54 8.54 0 0 0 38.38 0zm6.8 6.45a7.18 7.18 0 0 0-2-3.19l.23.24a7.12 7.12 0 0 1 1.76 2.95zm-3.76-4.34a7.22 7.22 0 0 0-.88-.36 7.22 7.22 0 0 1 .88.36zM43 3.16a6.91 6.91 0 0 0-.62-.48 7.23 7.23 0 0 1 .62.48zm-.77-.59a7.66 7.66 0 0 0-.67-.38 7.26 7.26 0 0 1 .7.38zM23.81 8.52zm1.94 12.31l.25.28-.1-.11c-.06 0-.1-.11-.15-.17zm.75.7l.33.24zm.72.47l.28.2zm1 .5l.24.09zm10.19-.14h-7.49A6.44 6.44 0 0 1 24.51 16V8.52a6.44 6.44 0 0 1 6.41-6.41h7.46a6.45 6.45 0 0 1 6.41 6.41V16a6.44 6.44 0 0 1-6.41 6.39zm5-1.39a7.11 7.11 0 0 1-3.93 2 7.16 7.16 0 0 0 5.93-5.95 7.11 7.11 0 0 1-2 3.98zm1.78-14.48a7 7 0 0 1 .22 1 7.23 7.23 0 0 0-.22-1z" fill="#c7c8ca"/><path d="M87.94 72.81V41.48h-4.11v-2.62h4.11v-2.54c0-3.54.42-7.5 2.68-10.26a7.86 7.86 0 0 1 5.95-2.75 6.86 6.86 0 0 1 3.54.85l-.85 2.47a6.93 6.93 0 0 0-3-.64C91.76 26 91 31 91 36.32v2.54h6.43v2.62H91v31.33h-3zM106.45 30.17c0 1.62-.77 2.61-2.4 2.61-1.28 0-2.19-1-2.19-2.61a2.34 2.34 0 0 1 2.26-2.62c1.56 0 2.33 1.06 2.33 2.62zm-3.82 42.64V38.86h3v33.95h-3zM114 46.71c0-2.54-.21-5.72-.28-7.85h2.9l.13 5.52h.15c.85-3 3.82-6.08 7.35-6.08h.63v3.32h-.56c-4.39 0-6.93 4.32-7.21 8.49C117 51.1 117 52 117 53v19.8h-3V46.71zM129.51 54.56c0 13.65 4.73 16 8.56 16a9.07 9.07 0 0 0 5.09-1.34l.71 2.33a11.72 11.72 0 0 1-6.37 1.7c-7.42 0-11.1-7-11.1-17.26 0-10.75 3.89-17.68 10.12-17.68 6.72 0 8.56 8.28 8.56 14.29v2h-15.57zm12.31-2.47C142 43.74 138.5 41 136 41c-4 0-6.08 5.66-6.44 11.1h12.24zM151.3 46.71c0-4.17-.21-5.44-.28-7.85h2.75l.14 4.31h.15a7.61 7.61 0 0 1 7.35-4.88c2.76 0 5.59 1.34 6.93 5.51h.14a10.75 10.75 0 0 1 3.25-4.17 8 8 0 0 1 4.67-1.34c3.67 0 7.78 2.4 7.78 11.38v23.14h-3V50.74c0-4.8-.78-9.83-5.73-9.83-2.69 0-5.09 2.4-5.94 6.37a18.52 18.52 0 0 0-.21 3.46v22.07h-3V49.9c0-4.53-.92-9-5.66-9-2.75 0-5.45 2.47-6.07 7.07a22.22 22.22 0 0 0-.15 3.11v21.73h-3v-26.1zM195.5 55.2h.14c.63-1 1.27-2.19 1.91-3.26l8.2-13.08h3.33l-9.41 14.28 10.47 19.66h-3.47l-9-17.32-2.19 3.32v14h-3V23.87h3V55.2zM215.23 38.86l5.23 20.65c.78 3 1.13 5.52 1.7 7.85h.14c.42-2.06 1.2-5 1.84-7.85l4.81-20.65h3.11l-4.67 19c-2.41 9.91-4.81 19.17-9 24.83a18.67 18.67 0 0 1-5.09 5l-1.56-2.55a19.42 19.42 0 0 0 5-5.16 26 26 0 0 0 3.26-6.74 6 6 0 0 0 .36-1.84 3.73 3.73 0 0 0-.15-1.27l-8.06-31.26h3.12z" fill="#004282"/>
    </symbol>
    <symbol id="sub-01" viewBox="0 0 10.29 10.29">
      <path d="M9.6 2.56a5 5 0 0 1 .69 2.58 5 5 0 0 1-.69 2.58A5.12 5.12 0 0 1 7.72 9.6a5 5 0 0 1-2.58.69 5 5 0 0 1-2.58-.69A5.11 5.11 0 0 1 .69 7.72 5 5 0 0 1 0 5.14a5 5 0 0 1 .69-2.58A5.12 5.12 0 0 1 2.56.69 5 5 0 0 1 5.14 0a5 5 0 0 1 2.58.69A5.13 5.13 0 0 1 9.6 2.56zM5.14 8.79V1.5a3.56 3.56 0 0 0-1.83.5A3.62 3.62 0 0 0 2 3.31a3.56 3.56 0 0 0-.5 1.83A3.56 3.56 0 0 0 2 7a3.62 3.62 0 0 0 1.31 1.3 3.56 3.56 0 0 0 1.83.49z" fill="currentColor"/>
    </symbol>
    <symbol id="sub-02" viewBox="0 0 15.43 8.57">
      <path d="M14.55 3.45a2.89 2.89 0 0 1 .88 2.12 2.89 2.89 0 0 1-.88 2.12 3 3 0 0 1-4.24 0 2.88 2.88 0 0 1-.88-2.12 2.92 2.92 0 0 1 .26-1.23 3 3 0 0 1 .73-1L10 2.69 7.63 5.83a.39.39 0 0 1-.34.17H6a2.9 2.9 0 0 1-1 1.83 2.9 2.9 0 0 1-2 .74 2.89 2.89 0 0 1-2.12-.88A2.89 2.89 0 0 1 0 5.57a2.89 2.89 0 0 1 .88-2.12A2.89 2.89 0 0 1 3 2.57a3 3 0 0 1 1.44.37l.92-1.23h-1.5a.43.43 0 0 1-.43-.43.43.43 0 0 1 .43-.42h2.57v.85h2.91L8.77.86H7.29A.41.41 0 0 1 7 .73a.41.41 0 0 1-.14-.3.41.41 0 0 1 .14-.3.41.41 0 0 1 .29-.13H9a.41.41 0 0 1 .35.19l1.79 2.68a2.92 2.92 0 0 1 1.29-.29 2.89 2.89 0 0 1 2.12.87zM5.1 6H3a.42.42 0 0 1-.34-.68l1.26-1.68A2.11 2.11 0 0 0 3 3.43a2.07 2.07 0 0 0-1.51.63 2.07 2.07 0 0 0-.63 1.51 2.07 2.07 0 0 0 .63 1.51A2.07 2.07 0 0 0 3 7.71a2.07 2.07 0 0 0 1.36-.49A2.1 2.1 0 0 0 5.1 6zm-1.24-.86H5.1a2.1 2.1 0 0 0-.5-1zm3.21 0L9 2.57H5.79l-.66.88A2.86 2.86 0 0 1 6 5.14h1.1zm6.87 1.94a2.07 2.07 0 0 0 .63-1.51 2.15 2.15 0 0 0-2.14-2.14 2.22 2.22 0 0 0-.81.16l1.17 1.74a.43.43 0 0 1 .07.33.43.43 0 0 1-.78.15l-1.17-1.75a2.14 2.14 0 0 0 0 3 2.14 2.14 0 0 0 3.03.02z" fill="currentColor"/>
    </symbol>
    <symbol id="sub-03" viewBox="0 0 10.29 10.29">
      <path d="M9.6 2.56a5 5 0 0 1 .69 2.58 5 5 0 0 1-.69 2.58A5.12 5.12 0 0 1 7.72 9.6a5 5 0 0 1-2.58.69 5 5 0 0 1-2.58-.69A5.11 5.11 0 0 1 .69 7.72 5 5 0 0 1 0 5.14a5 5 0 0 1 .69-2.58A5.12 5.12 0 0 1 2.56.69 5 5 0 0 1 5.14 0a5 5 0 0 1 2.58.69A5.13 5.13 0 0 1 9.6 2.56zm-2 4.3h.62L5.14 2.23 2.07 6.86h.63l.7-1.07h3.5zM5.14 3.31l1.35 2H3.8z" fill="currentColor"/>
    </symbol>
    <symbol id="sub-04" viewBox="0 0 12 12">
      <path d="M4.71 2.14v5.15a.43.43 0 0 1-.43.43v3.86a.44.44 0 0 1-.43.43H.43a.41.41 0 0 1-.3-.13.41.41 0 0 1-.13-.31V8.14L1.67 2.3a.2.2 0 0 1 .21-.15h2.83zM4.93.21v1.5H2.57V.21A.21.21 0 0 1 2.79 0h1.92a.21.21 0 0 1 .22.21zm1.93 1.93v4.72H5.14V2.14h1.72zM9.43.21v1.5H7.07V.21A.21.21 0 0 1 7.29 0h1.92a.21.21 0 0 1 .22.21zM12 8.14v3.43a.43.43 0 0 1-.43.43H8.14a.41.41 0 0 1-.3-.13.41.41 0 0 1-.13-.3V7.71a.43.43 0 0 1-.43-.43V2.14h2.84a.2.2 0 0 1 .21.15z" fill="currentColor"/>
    </symbol>
    <symbol id="sub-05" viewBox="0 0 10.29 10.29">
      <title>sub-05</title><path d="M9.6 2.56a5 5 0 0 1 .69 2.58 5 5 0 0 1-.69 2.58A5.12 5.12 0 0 1 7.72 9.6a5 5 0 0 1-2.58.69 5 5 0 0 1-2.58-.69A5.11 5.11 0 0 1 .69 7.72 5 5 0 0 1 0 5.14a5 5 0 0 1 .69-2.58A5.12 5.12 0 0 1 2.56.69 5 5 0 0 1 5.14 0a5 5 0 0 1 2.58.69A5.13 5.13 0 0 1 9.6 2.56zM4.8 8.48l3-3a.42.42 0 0 0 0-.6l-3-3a.42.42 0 0 0-.6 0l-.68.68a.42.42 0 0 0 0 .6l2.05 1.98L3.52 7.2a.42.42 0 0 0 0 .6l.68.68a.42.42 0 0 0 .6 0z" fill="currentColor"/>
    </symbol>
    <symbol id="sub-06" viewBox="0 0 10.93 10.93">
      <title>sub-06</title><path d="M10.93 8a1.83 1.83 0 0 1-.57 1.36l-1 1a1.85 1.85 0 0 1-1.36.57 1.83 1.83 0 0 1-1.37-.57L5.27 9a1.85 1.85 0 0 1-.56-1.36 1.88 1.88 0 0 1 .59-1.4l-.59-.61a1.88 1.88 0 0 1-1.39.59A1.86 1.86 0 0 1 2 5.65L.56 4.26A1.86 1.86 0 0 1 0 2.89a1.83 1.83 0 0 1 .57-1.36l1-1A1.85 1.85 0 0 1 2.91 0a1.83 1.83 0 0 1 1.37.57L5.66 2a1.85 1.85 0 0 1 .56 1.36 1.89 1.89 0 0 1-.59 1.4l.58.54A1.94 1.94 0 0 1 9 5.28l1.39 1.39A1.86 1.86 0 0 1 10.93 8zm-6-4.72a.62.62 0 0 0-.19-.46L3.37 1.47a.62.62 0 0 0-.46-.19.65.65 0 0 0-.46.18l-1 1a.61.61 0 0 0-.19.45.62.62 0 0 0 .19.46l1.42 1.37a.62.62 0 0 0 .46.18.65.65 0 0 0 .47-.21l-.12-.12-.15-.14-.1-.13a.52.52 0 0 1-.09-.17.68.68 0 0 1 0-.18.64.64 0 0 1 .66-.65h.18a.55.55 0 0 1 .17.09l.13.1.11.17.12.12a.65.65 0 0 0 .22-.49zM9.64 8a.62.62 0 0 0-.19-.46L8.06 6.19A.62.62 0 0 0 7.61 6a.63.63 0 0 0-.48.21l.12.13.15.14.1.13a.53.53 0 0 1 .09.17.68.68 0 0 1 0 .18.64.64 0 0 1-.59.65h-.18a.53.53 0 0 1-.21-.11l-.13-.1-.14-.15-.13-.12a.65.65 0 0 0-.21.48.62.62 0 0 0 .19.46l1.37 1.39a.62.62 0 0 0 .44.18.65.65 0 0 0 .46-.17l1-1A.61.61 0 0 0 9.64 8z" fill="currentColor"/>
    </symbol>
    <symbol id="sub-07" viewBox="0 0 11.71 10.29">
      <path d="M.78 0H2.1a5.28 5.28 0 0 0-.84 1 4.38 4.38 0 0 0-.39.77 3.21 3.21 0 0 0-.2.84c0 .3-.05.56-.06.8a5.05 5.05 0 0 0 .07.88q.07.53.13.85t.19.91v.19q.34 1.59.54 2.2a5.08 5.08 0 0 0 1 1.84H.78a.75.75 0 0 1-.55-.23.75.75 0 0 1-.23-.54V.78A.75.75 0 0 1 .23.23.75.75 0 0 1 .78 0zm8.09 0h2.06a.75.75 0 0 1 .55.23.75.75 0 0 1 .23.55v8.73a.78.78 0 0 1-.78.78H9.74A4.77 4.77 0 0 0 11 6.5l-3.14.68a2.57 2.57 0 0 1-.08.55 1.91 1.91 0 0 1-.21.48 1.21 1.21 0 0 1-.4.4 1.93 1.93 0 0 1-.63.24 1.46 1.46 0 0 1-1.33-.27 1.69 1.69 0 0 1-.36-.41 4.45 4.45 0 0 1-.34-.86 17.52 17.52 0 0 1-.43-1.73 17.53 17.53 0 0 1-.3-1.76 4.73 4.73 0 0 1 0-.93 1.7 1.7 0 0 1 .15-.52 1.36 1.36 0 0 1 .42-.49A1.75 1.75 0 0 1 5 1.59a1.4 1.4 0 0 1 .56 0 2 2 0 0 1 .45.11 1.2 1.2 0 0 1 .36.23 2.11 2.11 0 0 1 .29.32 3.55 3.55 0 0 1 .23.38l3.13-.67A5.48 5.48 0 0 0 8.87 0z" fill="currentColor"/>
    </symbol>
    <symbol id="sub-08" viewBox="0 0 10.29 10.29">
      <path d="M0 0h10.29v10.29H0V0zm7.27 7.47L5.79 3.24l1.48-2H3l1.48 2L3 7.47l2.12 2z" fill="currentColor"/>
    </symbol>
    <symbol id="sub-09" viewBox="0 0 8.57 10.13">
      <path d="M7.79 0a.74.74 0 0 1 .29.06.75.75 0 0 1 .35.27.71.71 0 0 1 .13.42v8.63a.71.71 0 0 1-.13.42.75.75 0 0 1-.35.27.74.74 0 0 1-.29.05.8.8 0 0 1-.56-.21l-3-2.84-3 2.84a.8.8 0 0 1-.56.22.74.74 0 0 1-.29-.06.75.75 0 0 1-.25-.27.71.71 0 0 1-.13-.42V.75A.71.71 0 0 1 .13.33.75.75 0 0 1 .48.06.74.74 0 0 1 .78 0h7zm-.08.86H.86v8.31l2.83-2.71.6-.57.6.57 2.82 2.71V.86z" fill="currentColor"/>
    </symbol>
    <symbol id="sub-10" viewBox="0 0 13.71 10.29">
      <path d="M13.71 9.43v.86H0V0h.86v9.43h12.85zm-2.57-6.86l1.71 6H1.71V4.71l3-3.86 3.86 3.86z" fill="currentColor"/>
    </symbol>
    <symbol id="sub-11" viewBox="0 0 12 10.07">
      <path d="M11.2 2.13a3.29 3.29 0 0 1 0 4.31A5.43 5.43 0 0 1 9 8a7.79 7.79 0 0 1-3 .57 8.07 8.07 0 0 1-1.41-.12A5.7 5.7 0 0 1 1.67 10l-.58.09A.22.22 0 0 1 1 10a.21.21 0 0 1-.14-.09.28.28 0 0 1 .14-.25l.16-.14.17-.16.16-.17A1.3 1.3 0 0 0 1.64 9l.14-.25a1.67 1.67 0 0 0 .13-.32C1.95 8.3 2 8.17 2 8s.06-.31.08-.49A4.84 4.84 0 0 1 .56 6.09 3.22 3.22 0 0 1 0 4.29a3.34 3.34 0 0 1 .8-2.16A5.42 5.42 0 0 1 3 .57 7.79 7.79 0 0 1 6 0a7.79 7.79 0 0 1 3 .57 5.43 5.43 0 0 1 2.2 1.56zM4 4.89a.85.85 0 0 0 0-1.21.86.86 0 0 0-1.21 0 .86.86 0 0 0 .61 1.46.83.83 0 0 0 .6-.25zm2.57 0a.86.86 0 0 0 0-1.21.86.86 0 0 0-1.46.61.86.86 0 0 0 1.5.6zm2.57 0a.86.86 0 0 0 0-1.21.86.86 0 0 0-1.46.61.86.86 0 0 0 1.5.6z" fill="currentColor"/>
    </symbol>
    <symbol id="sub-12" viewBox="0 0 14.57 12">
      <path d="M6 7.71a1.36 1.36 0 0 1-.31.88 2.15 2.15 0 0 1-.79.61 4.78 4.78 0 0 1-1 .33 4.3 4.3 0 0 1-.9.11 4.3 4.3 0 0 1-.93-.11 4.78 4.78 0 0 1-1-.33 2.15 2.15 0 0 1-.76-.61A1.36 1.36 0 0 1 0 7.71a2.56 2.56 0 0 1 .23-.54Q.47 6.7.85 6l.72-1.31.68-1.23.38-.67A.4.4 0 0 1 3 2.57a.4.4 0 0 1 .38.22l.37.67.68 1.23L5.15 6q.38.7.62 1.17a2.56 2.56 0 0 1 .23.54zM3 3L.43 7.71h5.14zm5.5-1.29a1.31 1.31 0 0 1-.78.78v8.65h4.07a.21.21 0 0 1 .15.06.21.21 0 0 1 .06.15v.43a.21.21 0 0 1-.06.15.21.21 0 0 1-.15.06h-9a.21.21 0 0 1-.15-.06.21.21 0 0 1-.06-.15v-.42a.21.21 0 0 1 .06-.15.21.21 0 0 1 .15-.06h4.07V2.5a1.31 1.31 0 0 1-.78-.78H2.79a.21.21 0 0 1-.22-.22v-.43a.21.21 0 0 1 .22-.21h3.28a1.31 1.31 0 0 1 .47-.62A1.28 1.28 0 0 1 8 .24a1.31 1.31 0 0 1 .5.62h3.29a.21.21 0 0 1 .15.06.21.21 0 0 1 .06.15v.43a.21.21 0 0 1-.21.21H8.5zm-1.59-.05a.53.53 0 0 0 .76 0 .52.52 0 0 0 .16-.38.52.52 0 0 0-.17-.37.53.53 0 0 0-.76 0 .52.52 0 0 0-.16.38.52.52 0 0 0 .17.37zm7.66 6.05a1.36 1.36 0 0 1-.31.88 2.16 2.16 0 0 1-.79.61 4.81 4.81 0 0 1-1 .33 4 4 0 0 1-1.87 0 4.79 4.79 0 0 1-1-.33 2.16 2.16 0 0 1-.79-.61 1.36 1.36 0 0 1-.31-.88 2.56 2.56 0 0 1 .23-.54Q9 6.7 9.42 6l.72-1.31.68-1.23.38-.67a.43.43 0 0 1 .75 0l.38.67.67 1.23.72 1.31q.38.7.62 1.17a2.56 2.56 0 0 1 .23.54zm-3-4.71L9 7.71h5.14z" fill="currentColor"/>
    </symbol>
    <symbol id="sub-13" viewBox="0 0 12 11.89">
      <path d="M12 7.93v2.36a.2.2 0 0 1-.13.2h-.08a.22.22 0 0 1-.15-.06L11 9.82a5.45 5.45 0 0 1-2.13 1.52 7.37 7.37 0 0 1-2.87.55 7.37 7.37 0 0 1-2.88-.56A5.45 5.45 0 0 1 1 9.82l-.62.62a.21.21 0 0 1-.15.06h-.1a.2.2 0 0 1-.13-.21V7.93a.21.21 0 0 1 .06-.15.2.2 0 0 1 .15-.07h2.36a.2.2 0 0 1 .2.13.21.21 0 0 1 0 .23l-.67.67a3.52 3.52 0 0 0 1.27 1 5.58 5.58 0 0 0 1.82.55V6H3.86a.43.43 0 0 1-.43-.43v-.86a.43.43 0 0 1 .43-.43h1.28V3.19a1.74 1.74 0 0 1-.62-.62 1.63 1.63 0 0 1-.23-.86A1.65 1.65 0 0 1 4.79.5a1.71 1.71 0 0 1 2.42 0 1.65 1.65 0 0 1 .5 1.21 1.64 1.64 0 0 1-.23.86 1.74 1.74 0 0 1-.62.62v1.1h1.28a.43.43 0 0 1 .43.43v.85a.43.43 0 0 1-.43.43H6.86v4.33a5.59 5.59 0 0 0 1.82-.55 3.52 3.52 0 0 0 1.27-1l-.68-.7a.2.2 0 0 1 0-.23.2.2 0 0 1 .2-.13h2.36a.2.2 0 0 1 .15.06.21.21 0 0 1 .02.15zM6.3 2a.42.42 0 1 0-.3.13.41.41 0 0 0 .3-.13z" fill="currentColor"/>
    </symbol>
    <symbol id="sub-14" viewBox="0 0 12 7.71">
      <path d="M12 3.86a.93.93 0 0 1-.13.46 7.1 7.1 0 0 1-2.53 2.47 6.48 6.48 0 0 1-6.69 0A7.15 7.15 0 0 1 .13 4.32a.86.86 0 0 1 0-.92A7.15 7.15 0 0 1 2.66.93a6.48 6.48 0 0 1 6.69 0 7.15 7.15 0 0 1 2.52 2.46.93.93 0 0 1 .13.47zm-.86 0a6.59 6.59 0 0 0-2.55-2.37A2.93 2.93 0 0 1 9 3a2.89 2.89 0 0 1-.88 2.12A2.89 2.89 0 0 1 6 6a2.89 2.89 0 0 1-2.12-.88A2.89 2.89 0 0 1 3 3a2.92 2.92 0 0 1 .41-1.51A6.58 6.58 0 0 0 .86 3.86 6.91 6.91 0 0 0 3.09 6a5.61 5.61 0 0 0 5.82 0 6.91 6.91 0 0 0 2.23-2.14zM6.23 1.51a.32.32 0 0 0 0-.46A.31.31 0 0 0 6 1a2 2 0 0 0-1.44.6A2 2 0 0 0 4 3a.32.32 0 1 0 .64 0A1.4 1.4 0 0 1 6 1.61a.31.31 0 0 0 .23-.1z" fill="currentColor"/>
    </symbol>
    <symbol id="sub-15" viewBox="0 0 10.29 10.29">
      <path d="M9.6 2.56a5 5 0 0 1 .69 2.58 5 5 0 0 1-.69 2.58A5.12 5.12 0 0 1 7.72 9.6a5 5 0 0 1-2.58.69 5 5 0 0 1-2.58-.69A5.11 5.11 0 0 1 .69 7.72 5 5 0 0 1 0 5.14a5 5 0 0 1 .69-2.58A5.12 5.12 0 0 1 2.56.69 5 5 0 0 1 5.14 0a5 5 0 0 1 2.58.69A5.13 5.13 0 0 1 9.6 2.56zM8.3 7a3.56 3.56 0 0 0 .49-1.83 3.56 3.56 0 0 0-.49-1.86A3.63 3.63 0 0 0 7 2a3.56 3.56 0 0 0-1.86-.5 3.56 3.56 0 0 0-1.83.5A3.62 3.62 0 0 0 2 3.31a3.56 3.56 0 0 0-.5 1.83A3.56 3.56 0 0 0 2 7a3.62 3.62 0 0 0 1.31 1.3 3.56 3.56 0 0 0 1.83.49A3.56 3.56 0 0 0 7 8.3 3.62 3.62 0 0 0 8.3 7zM6 2.79v3a.21.21 0 0 1-.06.15.2.2 0 0 1-.15.06H3.64a.21.21 0 0 1-.21-.21v-.43a.21.21 0 0 1 .21-.21h1.5V2.79a.21.21 0 0 1 .21-.21h.44a.21.21 0 0 1 .15.06.21.21 0 0 1 .06.15z" fill="currentColor"/>
    </symbol>
    <symbol id="sub-16" viewBox="0 0 10.29 12">
      <path d="M2.56.23A13.46 13.46 0 0 1 5.14 0a13.46 13.46 0 0 1 2.58.23A6.22 6.22 0 0 1 9.6.86a1.09 1.09 0 0 1 .69.86v.85a1.09 1.09 0 0 1-.69.86 6.2 6.2 0 0 1-1.87.63 13.46 13.46 0 0 1-2.58.23 13.46 13.46 0 0 1-2.58-.23 6.2 6.2 0 0 1-1.88-.63A1.09 1.09 0 0 1 0 2.57v-.86A1.09 1.09 0 0 1 .69.86 6.22 6.22 0 0 1 2.56.23zm-.38 4.63a14.54 14.54 0 0 0 3 .29 14.55 14.55 0 0 0 3-.29A5.86 5.86 0 0 0 10.29 4v1.14A1.09 1.09 0 0 1 9.6 6a6.22 6.22 0 0 1-1.87.63 13.54 13.54 0 0 1-2.58.23 13.54 13.54 0 0 1-2.58-.23A6.22 6.22 0 0 1 .69 6 1.09 1.09 0 0 1 0 5.14V4a5.85 5.85 0 0 0 2.18.86zm0 2.57a14.47 14.47 0 0 0 3 .29 14.48 14.48 0 0 0 3-.29 5.84 5.84 0 0 0 2.18-.85v1.13a1.09 1.09 0 0 1-.69.86 6.25 6.25 0 0 1-1.87.63 13.54 13.54 0 0 1-2.58.23 13.54 13.54 0 0 1-2.66-.23 6.25 6.25 0 0 1-1.87-.63A1.09 1.09 0 0 1 0 7.71V6.58a5.83 5.83 0 0 0 2.18.85zm0 2.57a14.47 14.47 0 0 0 3 .29 14.48 14.48 0 0 0 3-.29 5.84 5.84 0 0 0 2.18-.85v1.14a1.09 1.09 0 0 1-.69.86 6.25 6.25 0 0 1-1.87.63 13.46 13.46 0 0 1-2.66.22 13.46 13.46 0 0 1-2.58-.23 6.25 6.25 0 0 1-1.87-.63 1.09 1.09 0 0 1-.69-.85V9.15a5.83 5.83 0 0 0 2.18.85z" fill="currentColor"/>
    </symbol>
    <symbol id="sub-17" viewBox="0 0 13.71 12">
      <path d="M13.71 6a.37.37 0 0 1-.09.24.38.38 0 0 1-.22.13L12 8.75a.37.37 0 0 1-.06.36.36.36 0 0 1-.22.13l-1.26 2.26a.3.3 0 0 1 0 .11.37.37 0 0 1-.11.27.36.36 0 0 1-.27.11.35.35 0 0 1-.28-.12H7.15a.38.38 0 0 1-.58 0H3.9a.36.36 0 0 1-.29.13.37.37 0 0 1-.27-.11.36.36 0 0 1-.11-.27.43.43 0 0 1 0-.13L2 9.24a.36.36 0 0 1-.22-.13.38.38 0 0 1-.06-.36L.3 6.37a.39.39 0 0 1-.22-.14.38.38 0 0 1 0-.48.39.39 0 0 1 .23-.13l1.33-2.3a.35.35 0 0 1 .23-.34L3.27.5a.34.34 0 0 1 0-.12.36.36 0 0 1 .08-.27.38.38 0 0 1 .56 0h2.66a.37.37 0 0 1 .58 0h2.66a.38.38 0 0 1 .56 0 .36.36 0 0 1 .11.27.43.43 0 0 1 0 .12l1.39 2.4a.37.37 0 0 1 .26.12.36.36 0 0 1 .11.26.4.4 0 0 1 0 .18l1.25 2.17a.38.38 0 0 1 .22.37zm-13-.09A.44.44 0 0 1 .76 6a.28.28 0 0 1 0 .1l1.38 2.4L3.5 7.21V4.89l-1.26-1.3a.47.47 0 0 1-.24.07zM2.4 3.25a.36.36 0 0 1-.05.19L3.5 4.65v-1.8zm0 5.52h1.1V7.51L2.37 8.69zm1.1-6.13V1.15L2.4 3zM3.5 9H2.4l1.09 1.9V9zM3.72.74v1.83l1.37-.5L3.79.72zm0 2v2.12l1 1.05 2-2.1-1.5-1.58zM4.61 6l-.91-.9V7zM3.7 8.77h2.69l.43-.44-2.07-2.15L3.7 7.29v1.48zm.17 2.57L6.19 9H3.7v2.24a.39.39 0 0 1 .17.1zM6.6.66H4L5.28 2 9 .66H7.11a.35.35 0 0 1-.51 0zm.52 10.68h2.6L7.43 9h-1l-2.24 2.34H6.6a.39.39 0 0 1 .26-.11.38.38 0 0 1 .26.11zM6.85 4l-2 2.11L6.94 8.2l2-2.06zM9.69.66h-.11l-4.16 1.5 1.43 1.5zM7 8.48l-.28.29h.52zm4.55-5a.36.36 0 0 1-.05-.19L10 .74h-.09L7 3.81 9.07 6zm-.9 5.3l.15-.7-1.74-1.79-2 2.06.44.42h3.1zM10 11.24l.12-.24.43-2H7.69l2.23 2.3zm-.8-5.09l1.59 1.68.88-4.18zM10.76 9l-.32 1.52.87-1.52h-.55zm.55-.2a.16.16 0 0 1 0-.07l-.43-.46-.11.53h.51zm.27-.27L13 6.09A.56.56 0 0 1 13 6v-.11l-1.14-2L11 8l.52.55z" fill="currentColor"/>
    </symbol>
    <symbol id="sub-18" viewBox="0 0 14.14 12.27">
      <path d="M9.43 6.5v2.13a1.93 1.93 0 0 1-1.93 1.93H1.93A1.86 1.86 0 0 1 .57 10 1.86 1.86 0 0 1 0 8.63V3.06A1.86 1.86 0 0 1 .57 1.7a1.86 1.86 0 0 1 1.36-.57H7.5a1.83 1.83 0 0 1 .78.17.2.2 0 0 1 .12.15.21.21 0 0 1-.06.19L8 2a.21.21 0 0 1-.14 0H7.8a1.22 1.22 0 0 0-.3 0H1.93a1 1 0 0 0-.76.31 1 1 0 0 0-.31.76v5.56a1 1 0 0 0 .31.76 1 1 0 0 0 .76.31H7.5a1.07 1.07 0 0 0 1.07-1.07v-1.7a.2.2 0 0 1 .06-.15l.43-.43a.21.21 0 0 1 .15-.07h.08a.19.19 0 0 1 .14.22zM11 3.23L5.52 8.68a.53.53 0 0 1-.76 0L1.88 5.8a.53.53 0 0 1 0-.76l.74-.74a.53.53 0 0 1 .76 0l1.76 1.76 4.34-4.33a.54.54 0 0 1 .76 0l.76.73a.53.53 0 0 1 0 .77z" fill="currentColor"/>
    </symbol></svg>